<svg width="136" height="31" viewBox="0 0 136 31" fill="none" xmlns="http://www.w3.org/2000/svg">
<g clip-path="url(#clip0_173_148)">
<path d="M55.2904 23.2436H52.2282V10.5893H45.4705V23.2436H42.4082V7.7334H55.2884V23.2436H55.2904Z" fill="black"/>
<path d="M69.8969 17.121C69.8969 20.9173 67.7904 23.4482 64.7679 23.4482C63.1771 23.4482 61.865 22.8349 60.951 21.6921V27.3262H58.0879V10.9983H60.6325L60.7918 12.8361C61.7057 11.5298 63.0974 10.7959 64.7679 10.7959C67.868 10.7959 69.8969 13.2859 69.8969 17.1231V17.121ZM66.9939 17.121C66.9939 14.7537 65.8013 13.2429 63.8939 13.2429C61.9864 13.2429 60.8316 14.7537 60.8316 17.121C60.8316 19.4883 61.9844 20.9991 63.8939 20.9991C65.8033 20.9991 66.9939 19.4883 66.9939 17.121Z" fill="black"/>
<path d="M82.3988 10.998V23.2435H79.6153V15.1603L74.327 23.2435H71.4639V10.998H74.2872V19.0813L79.5357 10.998H82.3988Z" fill="black"/>
<path d="M95.733 10.998V23.2435H92.8699V18.3453H87.701V23.2435H84.8379V10.998H87.701V15.6509H92.8699V10.998H95.733Z" fill="black"/>
<path d="M110.499 20.592V26.1035H107.755V23.2455H98.1343V10.998H100.997V20.59H106.047V10.998H108.91V20.59H110.501L110.499 20.592Z" fill="black"/>
<path d="M122.8 10.998V23.2435H120.016V15.1603L114.728 23.2435H111.865V10.998H114.688V19.0813L119.937 10.998H122.8Z" fill="black"/>
<path d="M136.136 23.2435H133.273V13.6516H128.104V23.2435H125.241V10.998H136.134V23.2435H136.136Z" fill="black"/>
<path d="M30.1926 0V10.332L25.1572 5.16599L30.1926 0Z" fill="#595959"/>
<path d="M30.1924 10.332L20.1235 12.914L22.6482 7.74799L25.157 5.16602L30.1924 10.332Z" fill="#333333"/>
<path d="M20.1235 0H30.1924L25.157 5.16599L20.1235 0Z" fill="#CCCCCC"/>
<path d="M25.1573 5.16599L22.6485 7.74796L17.623 10.332L20.1238 0L25.1573 5.16599Z" fill="#A6A6A6"/>
<path d="M30.1926 20.6621V31.0002L25.1572 25.8281L30.1926 20.6621Z" fill="#595959"/>
<path d="M20.1258 18.082L22.6485 23.246L17.623 20.662L17.637 20.6476C18.7102 20.0875 19.5843 19.186 20.1258 18.082Z" fill="#CCCCCC"/>
<path d="M20.1235 18.0801L30.1924 20.662L25.157 25.828L22.6482 23.2461L20.1235 18.0801Z" fill="#A6A6A6"/>
<path d="M30.1924 31.0002H20.1235L25.157 25.8281L30.1924 31.0002Z" fill="#333333"/>
<path d="M20.1238 31.0002L17.623 20.6621L22.6485 23.2461L25.1573 25.8281L20.1238 31.0002Z" fill="#7F7F7F"/>
<path d="M17.637 10.3464L17.623 10.3321L22.6485 7.74805L20.1258 12.912C19.5862 11.806 18.7122 10.9045 17.637 10.3464Z" fill="#7F7F7F"/>
<path d="M0 0V10.332L5.03541 5.16599L0 0Z" fill="#595959"/>
<path d="M0 10.332L10.0688 12.914L7.54416 7.74799L5.03541 5.16602L0 10.332Z" fill="#333333"/>
<path d="M10.0688 0H0L5.03541 5.16599L10.0688 0Z" fill="#CCCCCC"/>
<path d="M5.03564 5.16599L7.54439 7.74796L12.5699 10.332L10.0691 0L5.03564 5.16599Z" fill="#A6A6A6"/>
<path d="M0 20.6621V31.0002L5.03541 25.8281L0 20.6621Z" fill="#595959"/>
<path d="M10.0666 18.082L7.54395 23.246L12.5694 20.662L12.5555 20.6476C11.4823 20.0875 10.6082 19.186 10.0666 18.082Z" fill="#CCCCCC"/>
<path d="M10.0688 18.0801L0 20.662L5.03541 25.828L7.54416 23.2461L10.0688 18.0801Z" fill="#A6A6A6"/>
<path d="M0 31.0002H10.0688L5.03541 25.8281L0 31.0002Z" fill="#333333"/>
<path d="M10.0691 31.0002L12.5699 20.6621L7.54439 23.2461L5.03564 25.8281L10.0691 31.0002Z" fill="#7F7F7F"/>
<path d="M12.5555 10.3464L12.5694 10.3321L7.54395 7.74805L10.0666 12.912C10.6062 11.806 11.4803 10.9045 12.5555 10.3464Z" fill="#7F7F7F"/>
</g>
<defs>
<clipPath id="clip0_173_148">
<rect width="136" height="31" fill="white"/>
</clipPath>
</defs>
</svg>
