<svg width="15" height="20" viewBox="0 0 15 20" fill="none" xmlns="http://www.w3.org/2000/svg">
<path d="M10.8667 4.35645C11.4463 4.37298 13.0976 4.58582 14.1626 6.13965C14.0734 6.19324 12.1969 7.30019 12.2173 9.57227C12.2404 12.29 14.5835 13.1936 14.6265 13.209C14.6115 13.2752 14.2565 14.5109 13.3736 15.7646C12.6346 16.8706 11.8599 17.9518 10.6314 17.9717C9.4378 17.9988 9.03612 17.2676 7.66654 17.2676C6.28492 17.2677 5.85715 17.9518 4.71244 17.999C3.5417 18.0428 2.64674 16.8187 1.88139 15.7227C0.352337 13.4859 -0.838414 9.41782 0.758339 6.65039C1.53192 5.29337 2.94336 4.41879 4.45072 4.39551C5.62229 4.37071 6.71027 5.1875 7.43021 5.1875C8.13696 5.18727 9.4808 4.21035 10.8667 4.35645ZM10.8833 0C10.9997 1.06548 10.5784 2.11453 9.96244 2.88574C9.32019 3.64436 8.29183 4.22539 7.29057 4.15039C7.16012 3.12624 7.66687 2.03665 8.2349 1.37207C8.87726 0.617477 9.99173 0.0396735 10.8833 0Z" fill="white"/>
</svg>
