<svg width="24" height="24" viewBox="0 0 24 24" fill="none" xmlns="http://www.w3.org/2000/svg">
<path d="M22.3448 7.47474C22.3448 8.36191 22.1806 9.21929 21.8522 10.0469C21.5238 10.8745 21.0684 11.5994 20.4859 12.2218L12.158 21.0405L11.0055 19.8289L19.3334 11.0102C20.2504 10.0568 20.709 8.87832 20.709 7.47474C20.709 6.29625 20.3465 5.3197 19.6215 4.54508C18.8965 3.77046 17.9826 3.38315 16.8796 3.38315C15.6156 3.38315 14.5002 3.8797 13.5336 4.87281L4.36916 14.5854C3.63799 15.3666 3.2724 16.2472 3.2724 17.227C3.2724 17.9818 3.50167 18.6008 3.9602 19.0841C4.41873 19.5674 5.00119 19.8091 5.70757 19.8091C6.63703 19.8091 7.46734 19.4185 8.19851 18.6372L15.2066 11.2485C15.8634 10.5203 16.1918 9.87805 16.1918 9.32191C16.1918 9.04384 16.0927 8.82536 15.8944 8.66646C15.6961 8.50757 15.4606 8.42812 15.188 8.42812C14.5932 8.42812 14.0603 8.69294 13.5893 9.2226L7.26906 15.8963L6.13512 14.6847L12.4368 8.01101C13.2547 7.13708 14.1718 6.70012 15.188 6.70012C15.9068 6.70012 16.5264 6.94508 17.0469 7.43501C17.5674 7.92494 17.8277 8.54729 17.8277 9.30205C17.8277 10.3349 17.3381 11.3876 16.3591 12.4601L9.35103 19.8488C8.31005 20.9611 7.09556 21.5172 5.70757 21.5172C4.55505 21.5172 3.59151 21.11 2.81697 20.2957C2.04242 19.4814 1.65515 18.4585 1.65515 17.227C1.65515 15.7705 2.17565 14.486 3.21663 13.3738L12.3811 3.66122C13.6699 2.32384 15.1694 1.65515 16.8796 1.65515C18.4287 1.65515 19.7268 2.21129 20.774 3.32357C21.8212 4.43584 22.3448 5.81957 22.3448 7.47474Z" fill="white"/>
</svg>
