<svg fill="none" height="18" viewBox="0 0 16 18" width="16" xmlns="http://www.w3.org/2000/svg"><path clip-rule="evenodd" d="m1.14203 18c.06992-.0248.13984-.0619.22142-.1114l10.22005-5.9422-2.42394-2.56263zm10.89587-6.3012-2.52874-2.68642 2.52874-2.71114 3.4727 2.01788c.8507.49519.4196 1.11417 0 1.36176zm-.4544-5.65753-10.22005-5.917474c-.10488-.0618978-.23307-.0990367-.36126-.123796l8.14571 8.64099zm-11.175632-5.929853 8.402092 8.913343-8.355478 8.97524c-.244721-.1609-.3729083-.5199-.3729083-.978-.0116534-.8789-.0815737-14.90508-.0815737-15.95735 0-.495186.174801-.804677.407868-.953233z" fill="#fff" fill-rule="evenodd"/></svg>