<svg width="12" height="12" viewBox="0 0 12 12" fill="none" xmlns="http://www.w3.org/2000/svg">
<path d="M10.22 0H1.77998C1.3083 0.00133928 0.856304 0.189256 0.522812 0.522812C0.189256 0.856283 0.00132857 1.3083 0 1.77998V10.22C0.00133928 10.6917 0.189256 11.1437 0.522812 11.4772C0.856283 11.8107 1.3083 11.9987 1.77998 12H10.22C10.6917 11.9987 11.1437 11.8107 11.4772 11.4772C11.8107 11.1437 11.9987 10.6917 12 10.22V1.77998C11.9987 1.3083 11.8107 0.856304 11.4772 0.522812C11.1437 0.189256 10.6917 0.00132857 10.22 0V0ZM11 10.2199C11 10.4267 10.9179 10.6251 10.7715 10.7714C10.6252 10.9177 10.4268 10.9998 10.22 10.9998H1.77998C1.57315 10.9998 1.37477 10.9177 1.22845 10.7714C1.08214 10.6251 1.00003 10.4267 1.00003 10.2199V1.77985C1.00003 1.57302 1.08214 1.37464 1.22845 1.22832C1.37477 1.08201 1.57315 0.999896 1.77998 0.999896H10.22C10.4269 0.999896 10.6252 1.08201 10.7715 1.22832C10.9179 1.37464 11 1.57302 11 1.77985V10.2199Z" fill="white"/>
<path d="M5.99999 3C5.20437 3 4.44132 3.31607 3.87865 3.87865C3.31607 4.44132 3 5.20437 3 5.99999C3 6.79561 3.31607 7.55865 3.87865 8.12132C4.44132 8.68391 5.20437 8.99998 5.99999 8.99998C6.79561 8.99998 7.55865 8.68391 8.12132 8.12132C8.68391 7.55865 8.99998 6.79561 8.99998 5.99999C8.99998 5.20437 8.68391 4.44132 8.12132 3.87865C7.55865 3.31607 6.79561 3 5.99999 3ZM5.99999 7.99991C5.46955 7.99991 4.96088 7.78923 4.58579 7.41414C4.21071 7.03906 4.00002 6.53039 4.00002 5.99995C4.00002 5.46951 4.21071 4.96084 4.58579 4.58575C4.96088 4.21067 5.46955 3.99998 5.99999 3.99998C6.53043 3.99998 7.0391 4.21067 7.41418 4.58575C7.78927 4.96084 7.99995 5.46951 7.99995 5.99995C7.99995 6.53039 7.78927 7.03906 7.41418 7.41414C7.0391 7.78923 6.53043 7.99991 5.99999 7.99991Z" fill="white"/>
<path d="M9.99999 2.75C9.99999 3.16425 9.66417 3.49999 9.25 3.49999C8.83574 3.49999 8.5 3.16425 8.5 2.75C8.5 2.33583 8.83574 2 9.25 2C9.66417 2 9.99999 2.33583 9.99999 2.75Z" fill="white"/>
</svg>
