<svg width="12" height="12" viewBox="0 0 12 12" fill="none" xmlns="http://www.w3.org/2000/svg">
<g clip-path="url(#clip0_5442_11553)">
<path d="M6.52117 2.97352L3.14169 6.25528C2.87389 6.5143 2.723 6.86602 2.72224 7.23306C2.72148 7.60011 2.87089 7.95241 3.13762 8.21248C3.40435 8.47254 3.76654 8.61906 4.14451 8.6198C4.52249 8.62055 4.88529 8.47545 5.15309 8.21643L8.76059 4.71325C8.96858 4.51127 9.13358 4.27148 9.24614 4.00757C9.35871 3.74367 9.41665 3.46082 9.41665 3.17517C9.41665 2.88952 9.35871 2.60667 9.24614 2.34277C9.13358 2.07887 8.96858 1.83908 8.76059 1.63709C8.55259 1.43511 8.30566 1.27489 8.0339 1.16558C7.76214 1.05626 7.47086 1 7.17671 1C6.58264 1 6.0129 1.22917 5.59283 1.63709L1.98534 5.29052C1.34878 5.92325 0.994754 6.77418 1.00006 7.65873C1.00536 8.54329 1.36957 9.39015 2.01368 10.0156C2.65779 10.6411 3.52986 10.9948 4.44076 10.9999C5.35165 11.0051 6.22791 10.6613 6.87948 10.0431L11 6.04177" stroke="#666666" stroke-width="1.1" stroke-linecap="round" stroke-linejoin="round"/>
</g>
<defs>
<clipPath id="clip0_5442_11553">
<rect width="12" height="12" fill="white"/>
</clipPath>
</defs>
</svg>
