<svg width="20" height="21" viewBox="0 0 20 21" fill="none" xmlns="http://www.w3.org/2000/svg" aria-hidden="true">
<path d="M14.7855 13.2739C17.0044 10.1037 16.7242 5.69813 13.8745 2.87762C10.6978 -0.292541 5.53578 -0.292541 2.38249 2.87762C-0.794163 6.04779 -0.794163 11.1993 2.38249 14.3462C3.97085 15.9313 6.04965 16.7238 8.12849 16.7238C9.76353 16.7238 11.3986 16.2343 12.8 15.2552L17.6351 20.0804C17.9153 20.3601 18.2657 20.5 18.6161 20.5C18.9664 20.5 19.3401 20.3602 19.5971 20.0804C20.1343 19.5442 20.1343 18.6585 19.5971 18.099L14.7855 13.2739ZM11.9125 12.3648C9.83362 14.4394 6.44675 14.4394 4.36791 12.3648C2.28908 10.2902 2.28908 6.91024 4.36791 4.83565C5.39567 3.80998 6.77376 3.27391 8.12851 3.27391C9.48329 3.27391 10.8614 3.78669 11.8891 4.83565C13.9913 6.91024 13.9913 10.2902 11.9125 12.3648H11.9125Z" fill="currentColor"/>
</svg>
