<svg width="12" height="12" viewBox="0 0 12 12" fill="none" xmlns="http://www.w3.org/2000/svg">
<g clip-path="url(#clip0_327_354)">
<path d="M2.5 1.75C2.5 2.438 1.937 3 1.25 3C0.562 3 0 2.45 0 1.75C0 1.062 0.563 0.5 1.25 0.5C1.938 0.5 2.5 1.063 2.5 1.75ZM4.25 0.95C4.03783 0.95 3.83434 1.03429 3.68431 1.18431C3.53429 1.33434 3.45 1.53783 3.45 1.75C3.45 1.96217 3.53429 2.16566 3.68431 2.31569C3.83434 2.46571 4.03783 2.55 4.25 2.55H11.002C11.2142 2.55 11.4177 2.46571 11.5677 2.31569C11.7177 2.16566 11.802 1.96217 11.802 1.75C11.802 1.53783 11.7177 1.33434 11.5677 1.18431C11.4177 1.03429 11.2142 0.95 11.002 0.95H4.25ZM1.25 7.25C1.938 7.25 2.5 6.687 2.5 6C2.5 5.312 1.937 4.75 1.25 4.75C0.562 4.75 0 5.313 0 6C0 6.7 0.563 7.25 1.25 7.25ZM4.25 5.2C4.03783 5.2 3.83434 5.28429 3.68431 5.43431C3.53429 5.58434 3.45 5.78783 3.45 6C3.45 6.21217 3.53429 6.41566 3.68431 6.56569C3.83434 6.71571 4.03783 6.8 4.25 6.8H11.002C11.1071 6.8 11.2111 6.77931 11.3081 6.7391C11.4052 6.6989 11.4934 6.63997 11.5677 6.56569C11.642 6.4914 11.7009 6.40321 11.7411 6.30615C11.7813 6.20909 11.802 6.10506 11.802 6C11.802 5.89494 11.7813 5.79091 11.7411 5.69385C11.7009 5.59679 11.642 5.5086 11.5677 5.43431C11.4934 5.36003 11.4052 5.3011 11.3081 5.2609C11.2111 5.22069 11.1071 5.2 11.002 5.2H4.25ZM1.25 11.5C1.938 11.5 2.5 10.937 2.5 10.25C2.5 9.562 1.937 9 1.25 9C0.562 9 0 9.563 0 10.25C0 10.95 0.563 11.5 1.25 11.5ZM4.25 9.45C4.14494 9.45 4.04091 9.47069 3.94385 9.5109C3.84679 9.5511 3.7586 9.61003 3.68431 9.68431C3.61003 9.7586 3.5511 9.84679 3.5109 9.94385C3.47069 10.0409 3.45 10.1449 3.45 10.25C3.45 10.3551 3.47069 10.4591 3.5109 10.5561C3.5511 10.6532 3.61003 10.7414 3.68431 10.8157C3.7586 10.89 3.84679 10.9489 3.94385 10.9891C4.04091 11.0293 4.14494 11.05 4.25 11.05H11.002C11.1071 11.05 11.2111 11.0293 11.3081 10.9891C11.4052 10.9489 11.4934 10.89 11.5677 10.8157C11.642 10.7414 11.7009 10.6532 11.7411 10.5561C11.7813 10.4591 11.802 10.3551 11.802 10.25C11.802 10.1449 11.7813 10.0409 11.7411 9.94385C11.7009 9.84679 11.642 9.7586 11.5677 9.68431C11.4934 9.61003 11.4052 9.5511 11.3081 9.5109C11.2111 9.47069 11.1071 9.45 11.002 9.45H4.25Z" fill="black"/>
</g>
<defs>
<clipPath id="clip0_327_354">
<rect width="12" height="12" fill="white"/>
</clipPath>
</defs>
</svg>
